{"title":"Ghoonghat 1997 DVDRip XViD 6Chnls AC3 (ExD) - Hindi","uid":8234828,"size":1557008384,"categoryP":"video","categoryS":"movies","magnet":"?xt=urn:btih:2c8d1e9ce3f931abb70891d4502a531154b590b2&amp;dn=Ghoonghat+1997+DVDRip+XViD+6Chnls+AC3+%28ExD%29+-+Hindi&amp;tr=udp%3A%2F%2Ftracker.openbittorrent.com%3A80&amp;tr=udp%3A%2F%2Fopen.demonii.com%3A1337&amp;tr=udp%3A%2F%2Ftracker.coppersurfer.tk%3A6969&amp;tr=udp%3A%2F%2Fexodus.desync.com%3A6969","seeders":0,"leechers":1,"uploader":"SJonam","files":1,"time":1362814908,"description":" &lt;a href=&quot;http://desibbrg.org/images/66952052392581364616.gif&quot; rel=&quot;nofollow&quot; target=&quot;_NEW&quot;&gt;http://desibbrg.org/images/66952052392581364616.gif&lt;/a&gt; &lt;a href=&quot;\nhttp://desibbrg.org/images/03563861883323665636.png&quot; rel=&quot;nofollow&quot; target=&quot;_NEW&quot;&gt;\nhttp://desibbrg.org/images/03563861883323665636.png&lt;/a&gt; &lt;a href=&quot;\nhttp://desibbrg.org/images/23512642606218020988.png&quot; rel=&quot;nofollow&quot; target=&quot;_NEW&quot;&gt;\nhttp://desibbrg.org/images/23512642606218020988.png&lt;/a&gt; &lt;a href=&quot;\nhttp://desibbrg.org/images/22626862541232874091.png&quot; rel=&quot;nofollow&quot; target=&quot;_NEW&quot;&gt;\nhttp://desibbrg.org/images/22626862541232874091.png&lt;/a&gt; &lt;a href=&quot;\nhttp://desibbrg.org/images/10467606163976587540.png&quot; rel=&quot;nofollow&quot; target=&quot;_NEW&quot;&gt;\nhttp://desibbrg.org/images/10467606163976587540.png&lt;/a&gt;\n\nMedia Info - \nFormat : AVI\nFormat/Info : Audio Video Interleave\nFile size : 1.45 GiB\nDuration : 2h 15mn\nOverall bit rate : 1 537 Kbps\nWriting application : VirtualDubMod 1.5.10.2 (build 2542/release)\nWriting library : VirtualDubMod build 2542/release\n\nVideo\nID : 0\nFormat : MPEG-4 Visual\nFormat profile : Advanced Simple@L5\nFormat settings, BVOP : 2\nFormat settings, QPel : Yes\nFormat settings, GMC : No warppoints\nFormat settings, Matrix : Custom\nCodec ID : XVID\nCodec ID/Hint : XviD\nDuration : 2h 15mn\nBit rate : 1 080 Kbps\nWidth : 720 pixels\nHeight : 352 pixels\nDisplay aspect ratio : 2.045\nFrame rate : 23.976 fps\nColor space : YUV\nChroma subsampling : 4:2:0\nBit depth : 8 bits\nScan type : Progressive\nCompression mode : Lossy\nBits/(Pixel*Frame) : 0.178\nStream size : 1.02 GiB (70%)\nWriting library : XviD 1.2.1 (UTC 2008-12-04)\n\nAudio\nID : 1\nFormat : AC-3\nFormat/Info : Audio Coding 3\nMode extension : CM (complete main)\nCodec ID : 2000\nDuration : 2h 15mn\nBit rate mode : Constant\nBit rate : 448 Kbps\nChannel(s) : 6 channels\nChannel positions : Front: L C R, Side: L R, LFE\nSampling rate : 48.0 KHz\nBit depth : 16 bits\nCompression mode : Lossy\nStream size : 433 MiB (29%)\nAlignment : Split accross interleaves\nInterleave, duration : 42 ms (1.00 video frame)\nInterleave, preload duration : 500 ms\n\nRipper : \n\nSeeding 24x7... Extreme Seeding...\n\n\nEnjoy!\n","torrent":{"xt":"urn:btih:2c8d1e9ce3f931abb70891d4502a531154b590b2","amp;dn":"Ghoonghat+1997+DVDRip+XViD+6Chnls+AC3+%28ExD%29+-+Hindi","amp;tr":["udp%3A%2F%2Ftracker.openbittorrent.com%3A80","udp%3A%2F%2Fopen.demonii.com%3A1337","udp%3A%2F%2Ftracker.coppersurfer.tk%3A6969","udp%3A%2F%2Fexodus.desync.com%3A6969"],"infoHash":"2c8d1e9ce3f931abb70891d4502a531154b590b2","infoHashBuffer":{"type":"Buffer","data":[44,141,30,156,227,249,49,171,183,8,145,212,80,42,83,17,84,181,144,178]},"announce":[],"urlList":[]}}